<?xml version="1.0" encoding="utf-8"?>
<!-- Generator: Adobe Illustrator 24.0.1, SVG Export Plug-In . SVG Version: 6.00 Build 0)  -->
<svg version="1.1" id="레이어_1" xmlns="http://www.w3.org/2000/svg" xmlns:xlink="http://www.w3.org/1999/xlink" x="0px"
	 y="0px" viewBox="0 0 638 672.3" style="enable-background:new 0 0 638 672.3;" xml:space="preserve">
<style type="text/css">
	.st0{fill:#9C836A;}
	.st1{font-family:'HeadlineR-HM';}
	.st2{font-size:133.5095px;}
</style>
<g>
	<g>
		<g>
			<path class="st0" d="M358.1,104.3c-9.6,3.5-18,8.8-25.3,15.2c12.1,16.2,19.4,36.4,19.4,58.1c0,53.8-43.8,97.4-97.4,97.4
				c-53.8,0-97.4-43.8-97.4-97.4c0-44.8,30.4-82.6,71.7-93.9c15.6-25.9,37.6-48,65-63.7c-12.5-3.2-25.7-4.8-39.2-4.8
				c-89.6,0-162.4,72.9-162.4,162.4c0,89.6,72.8,162.4,162.4,162.4c89.5,0,162.4-72.8,162.4-162.4c0-27.8-7-53.9-19.3-76.8
				C384.9,98.6,371.3,99.5,358.1,104.3L358.1,104.3z"/>
			<path class="st0" d="M384.7,15.2c-89.6,0-162.4,72.9-162.4,162.4c0,27.8,7,54,19.3,76.8c13.2,2.3,26.9,1.2,39.8-3.5
				c9.6-3.5,18-8.8,25.3-15.2c-12.1-16.2-19.4-36.4-19.4-58.1c0-53.7,43.8-97.4,97.4-97.4c53.7,0,97.4,43.8,97.4,97.4
				c0,44.8-30.4,82.6-71.7,93.9c-15.6,25.9-37.6,48-64.9,63.7c12.5,3.2,25.6,4.8,39.2,4.8c89.5,0,162.4-72.8,162.4-162.4
				C547.1,88.1,474.3,15.2,384.7,15.2L384.7,15.2z"/>
		</g>
	</g>
	<text transform="matrix(1.4224 0 0 1 11.3864 641.7448)" class="st0 st1 st2">WEDT</text>
</g>
</svg>
