<?xml version="1.0" encoding="utf-8"?>
<!-- Generator: Adobe Illustrator 24.0.1, SVG Export Plug-In . SVG Version: 6.00 Build 0)  -->
<svg version="1.1" id="레이어_1" xmlns="http://www.w3.org/2000/svg" xmlns:xlink="http://www.w3.org/1999/xlink" x="0px"
	 y="0px" viewBox="0 0 700 563" style="enable-background:new 0 0 700 563;" xml:space="preserve">
<style type="text/css">
	.st0{fill:#000333;}
</style>
<path class="st0" d="M411.3,73c16,23.1,4.9,58.3-44.4,77.4c-3.2,1.2-6.8,1.2-10,0c-49.3-19.1-60.4-54.3-44.4-77.4
	c10.2-14.8,39.7-18,49.3,0.4C371.6,55,401.1,58.2,411.3,73L411.3,73z"/>
<path class="st0" d="M620.5,272.2c-0.1-12.7-3.7-25.1-10.2-36c-6.5-10.9-15.8-19.8-27-25.9c-6.1-4.1-11.1-9.6-14.7-15.9
	c-1.4-2.1-2.9-4.2-4.3-6.2v0c-4.3-6-9.1-11.6-14.3-16.9c2.1-1.3,3.7-3.2,4.7-5.5c1.6-3.7,0.9-8-1.6-11.1c-3.5-3.8-8.4-6-13.5-5.9
	c-3.4,0-6.8,0.9-9.7,2.6c-4.7-8.3-13.1-16.4-20.1-14.1v0c-3.5,0.9-6.3,3.5-7.5,6.9c-0.8,2.9-0.6,5.9,0.5,8.7
	c-2.2-0.5-4.5-0.7-6.8-0.7c-39.9,0-67.8,14.6-83.3,43.6v0c-6.5,12.5-15.3,23.7-25.8,33.1c-13.4,12.2-20.4,29.9-18.9,48
	c0.6,12.7,7.1,24.3,17.7,31.4c2.7,1.7,5.6,2.9,8.7,3.8c-2.6,5.1-3.5,10.8-2.8,16.4c0.7,9.2,5.6,17.5,13.3,22.6
	c4.6,3.2,10,4.9,15.6,5.1c0.6,0,1.3-0.1,1.9-0.1c9.4,18.1,25.4,31.9,44.7,38.5c0,0.9-0.1,1.8-0.1,2.4h0c-0.3,4.1-1.8,8-4.2,11.3
	c-1.4-1.2-3.5-1.4-5.1-0.4c-2.1,1.3-2.7,4-1.4,6c0.2,0.4,0.4,0.7,0.6,1c-1.1,1-2.3,2-3.6,3.1c-4.1,3.1-8.5,5.7-13.1,7.9
	c-0.6,0.2-1.2,0.4-1.8,0.7l-1,0.4h0c-22.1,7.9-40.2,24.1-50.5,45.2c-2.6,4.7-2.9,10.3-0.6,15.2c2.8,5.7,8,9.7,14.2,10.9
	c13.4,2.6,27.1,4.2,40.7,4.9c21.7,1.4,42.8,1.5,50.8,1.5s29.1-0.1,50.9-1.5c13.7-0.7,27.3-2.3,40.7-4.9c6.2-1.2,11.4-5.2,14.2-10.9
	c2.3-4.9,2.1-10.5-0.5-15.2c-10.3-21.1-28.4-37.4-50.5-45.2l-1-0.4c-0.6-0.2-1.2-0.5-1.5-0.6h0c-4.7-2.1-9.1-4.7-13.2-7.8l-0.1-0.1
	l-0.1-0.1c-1.4-1-2.6-2.1-3.8-3.1c0.4-0.6,0.8-1.2,1.2-1.9c1.3-2,0.8-4.7-1.2-6c-2-1.3-4.7-0.8-6,1.2c-2.4-3.2-3.8-7-4-11v-2.5
	c19.3-6.6,35.3-20.4,44.6-38.5c0.6,0.1,1.2,0.1,1.9,0.1v0c5.6-0.1,11-1.9,15.6-5.1c5.9-4.2,10.2-10.3,12.2-17.2
	c2-7,1.5-14.4-1.4-21.1c2.5-0.5,4.9-1.3,7.2-2.4c7.2-3.5,13.2-8.9,17.3-15.7C618.6,287.9,620.7,280.1,620.5,272.2L620.5,272.2z
	 M532,429.4c2,1.2,4.1,2.3,6.2,3.4h0c1.9,20.6,2,41.3,0.2,61.9c-20.1,1.2-39,1.3-46.6,1.3c-7.5,0-26.4-0.1-46.5-1.3h0
	c-1.8-20.6-1.7-41.3,0.2-61.8c2.1-1,4.2-2.2,6.3-3.4c0.5,4.4,2.3,8.7,5,12.2c2.7,3.5,6.4,6.3,10.6,7.9c1.5,0.4,3,0.6,4.5,0.6
	c5.1,0,12.6-2.4,20-13.1c7.4,10.7,14.9,13.1,20,13.1h0c1.5,0,3.1-0.2,4.5-0.6c4.2-1.6,7.8-4.3,10.6-7.9S531.5,433.9,532,429.4
	L532,429.4z M515.2,415L515.2,415c-6.3,5.9-14.7,9.1-23.3,9.1s-17-3.3-23.3-9.2c4.2-5,6.7-11.3,7.1-17.9v-0.1v0
	c10.8,2.1,21.8,2.1,32.6,0v0.1C508.6,403.7,511,410,515.2,415L515.2,415z M583.7,328L583.7,328c-0.4,4.7-2.4,9.2-5.5,12.7
	c-3.2,3.5-7.5,5.8-12.1,6.7c2-4.7,3.6-9.6,4.8-14.6c1.8-1,3.7-1.7,5.7-2.3c1.2-0.2,2.2-0.8,2.9-1.8s1-2.2,0.7-3.3
	c-0.2-1.2-0.9-2.2-1.9-2.8c-1-0.7-2.2-0.9-3.4-0.6c-1.4,0.3-2.7,0.7-4,1.3c-0.6-0.6-1.3-1.1-2.2-1.2c-1.1-0.2-2.3,0-3.3,0.6
	c-1,0.6-1.6,1.7-1.9,2.8c-0.2,1.2-0.5,2.3-0.8,3.5c-1.6,7.1-4.1,14-7.3,20.6c-8.5,18.4-24.5,32.2-44,38c-12.7,3.4-26.1,3.5-38.8,0.1
	c-19.6-5.7-35.7-19.6-44.3-38.1c-3.2-6.5-5.6-13.4-7.3-20.4l-0.7-3.6v0c-0.2-1.1-0.9-2.1-1.9-2.8s-2.2-0.9-3.3-0.6
	c-0.8,0.2-1.6,0.6-2.2,1.3c-1.3-0.6-2.7-1-4.1-1.3c-1.2-0.3-2.4,0-3.4,0.6c-1,0.7-1.7,1.7-1.9,2.9c-0.2,1.2,0.1,2.4,0.7,3.3
	c0.7,1,1.7,1.6,2.9,1.8c2,0.6,3.9,1.3,5.7,2.3c1.3,5,2.9,9.9,4.8,14.6c-4.7-0.8-8.9-3.2-12.1-6.7c-3.2-3.5-5.2-8-5.6-12.7
	c-0.9-11.2,2.9-14,6.8-15.2l0.2-0.1c0.6-0.1,1.3-0.2,1.9-0.4h0.1v0c1.5-0.3,3-0.4,4.6-0.4c2,0,3.7-1.4,4.2-3.4
	c10.2-6.4,17.4-16.5,20.1-28.2c1.3,1.9,3.8,2.4,5.7,1.2c5.3-3.4,11.6-5.1,17.9-5.1c2.4,0,4.4-2,4.4-4.4s-2-4.4-4.4-4.4
	c-7.9-0.1-15.6,2.1-22.3,6.3c-0.1,0.1-0.2,0.2-0.2,0.2c1.6-8.8,5.6-21.9,9.8-27.1c3.1-4,8-6.1,13-5.7c5.1,0.4,9.6,3.4,12,7.9
	c12.3,22.1,31.2,28,45.9,26.3v0c0.7,0.5,1.6,0.8,2.4,0.8c6.3-0.1,12.5,1.7,17.9,5.1c0.7,0.4,1.4,0.6,2.2,0.6c1.5,0,2.8-0.7,3.6-2
	c4.7,10,11.5,18.9,20,26.1c-0.1,0.4-0.2,0.8-0.2,1.2c0,1.2,0.5,2.3,1.3,3.1c0.8,0.8,1.9,1.3,3.1,1.3c2.2,0,4.4,0.2,6.6,0.8
	C580.6,313.8,584.5,316.5,583.7,328L583.7,328z"/>
<path class="st0" d="M504,340.3c-2-1.3-4.7-0.7-6.1,1.3c-1.4,1.9-3.6,3-5.9,3s-4.6-1.1-5.9-3c-0.6-1-1.6-1.7-2.8-2
	c-1.2-0.3-2.4,0-3.3,0.6c-1,0.6-1.7,1.7-1.9,2.8c-0.2,1.2,0,2.4,0.7,3.3c2.9,4.5,7.9,7.2,13.3,7.2c5.4,0,10.4-2.7,13.3-7.2
	C506.6,344.3,506,341.6,504,340.3L504,340.3z"/>
<path class="st0" d="M491.6,329.7h0.4c2.4,0.1,4.4-1.8,4.5-4.2c0.1-2.4-1.8-4.5-4.2-4.5c-1.1,0-2.2-0.2-3.2-0.6
	c0.5-2.3,1.4-4.5,2.6-6.5c0.9-1.5,1.6-3.1,2.2-4.7c0.8-2.3-0.5-4.8-2.8-5.5c-2.3-0.8-4.8,0.5-5.5,2.8c-0.5,1.1-1,2.2-1.6,3.3
	c-2.4,4.4-5.3,9.9-2.6,14.7C483.6,327.9,487.5,329.8,491.6,329.7L491.6,329.7z"/>
<path class="st0" d="M456.8,289.5c-3.9,0-7,3.1-7,7v7c0,3.9,3.1,7,7,7s7-3.1,7-7v-7C463.7,292.6,460.6,289.5,456.8,289.5
	L456.8,289.5z"/>
<path class="st0" d="M527.2,289.5c-3.8,0-7,3.1-7,7v7c0,3.9,3.1,7,7,7s7-3.1,7-7v-7C534.2,292.6,531,289.5,527.2,289.5L527.2,289.5z
	"/>
<path class="st0" d="M222.4,355.9c-1.2,1.6-3.1,2.6-5.1,2.6c-2,0-3.9-1-5.1-2.6c-1.3-2-4-2.5-6-1.2c-2,1.3-2.6,4-1.3,6
	c2.7,4.2,7.4,6.7,12.4,6.7c5,0,9.7-2.5,12.4-6.7c0.7-1,0.9-2.2,0.7-3.3c-0.2-1.2-0.9-2.2-1.9-2.8s-2.2-0.9-3.3-0.6
	C224.1,354.2,223.1,354.9,222.4,355.9L222.4,355.9z"/>
<path class="st0" d="M217.3,345.7h0.4c3.9,0.1,7.5-1.8,9.7-5c2.5-4.6-0.3-9.9-2.4-13.8c-0.5-1-1-1.9-1.5-3c-0.8-2.3-3.2-3.5-5.5-2.8
	c-2.3,0.8-3.5,3.2-2.8,5.5c0.6,1.5,1.2,2.9,2,4.3c1,1.7,1.8,3.5,2.4,5.4c-0.8,0.3-1.7,0.5-2.6,0.5c-2.4,0.1-4.3,2.1-4.2,4.6
	C212.8,344,214.9,345.8,217.3,345.7L217.3,345.7z"/>
<path class="st0" d="M334,394.1c-2.4-4.4-4.9-9-7.4-14v0c-6.2-11.6-9-24.7-8.1-37.9c0.3-6.1-0.2-12.2-1.4-18.2
	c4.1-3.8,6.9-8.7,8.1-14.1c10.7-6.5,18.1-17.4,20.3-29.8c1.9-13.3-3.1-27.1-14.6-40.1l-2.8-3.1c-9-10.2-21-23.6-33.8-35.5
	c8.1-4.1,13.9-11.8,15.6-20.7c1.1-4.3,0.6-8.8-1.5-12.8c-2.1-3.9-5.5-7-9.6-8.5c-10.1-3.9-58.7-20.8-79.5,5.6
	c-20.8-26.3-69.4-9.4-79.5-5.6c-4,1.5-7.3,4.3-9.3,8.1c-2,3.8-2.5,8.1-1.5,12.3c1.9,9.2,7.9,17.1,16.4,21.2
	c-13.2,12.2-25.4,26-34.7,36.5l-2.3,2.6c-11.7,13.3-16.8,27.4-14.5,40.9h0c2.5,12.6,10.4,23.5,21.6,29.8
	c-0.3,11.1,0.3,22.1,1.8,33.1c4.6,33.8-7.9,53.2-18.9,70.2c-6.8,10.5-12.6,19.6-13,30.2l0,0c0.1,4.3,1.6,8.6,4.1,12.1
	c2.5,3.5,6,6.3,10.1,7.8c4.7,1.9,9.8,2.5,14.9,1.7c5-0.8,9.7-2.9,13.6-6.2c1.5,2.2,3.4,4.2,5.6,5.7c-1.5,2.2-2.9,4.5-4.2,6.9
	c-2.5,4.4-2.7,9.6-0.5,14.2c2.6,5.3,7.5,9,13.3,10.2c4.4,0.9,9.5,1.8,15.1,2.5c20,2.3,40.1,3.4,60.2,3.4c11.2,0,49.6-0.4,75.3-5.9
	c5.7-1.1,10.6-4.9,13.2-10.1c2.1-4.5,2-9.8-0.5-14.2c-1-1.9-2.2-3.7-3.4-5.6h0c2-2.6,3.5-5.5,4.7-8.6c6.4,4.7,14.3,7,22.2,6.3
	c8-0.4,15.4-4.6,19.8-11.3C357.5,437.5,347.6,419.3,334,394.1L334,394.1z M297.8,483.1c-1.4,2.8-4,4.7-7.1,5.3
	c-4.3,0.9-8.9,1.7-13.7,2.3c-0.8-5.2-3.1-10-6.6-14c-3.5-3.9-8-6.8-13.1-8.2c-13.4-3.5-28.7,3.5-38.9,17.8c-0.7,1-1,2.2-0.7,3.3
	c-0.9,0.2-1.8,0.3-2.7,0.3H215c-0.6,0-1.2-0.1-1.8-0.2c0.3-1.2,0-2.4-0.7-3.4c-10.2-14.3-25.5-21.3-38.9-17.8c-5,1.4-9.4,4.2-12.9,8
	c-3.5,3.8-5.8,8.6-6.7,13.6c-3.7-0.5-7.2-1.1-10.3-1.8h0c-3.1-0.5-5.7-2.5-7.1-5.3c-0.9-2-0.8-4.4,0.3-6.3c1.8-3.3,3.9-6.5,6.2-9.5
	c10.3-12.8,24-22.5,39.6-27.9c1.3-0.5,2.5-1.1,3.7-1.8c6.1,5.2,13.2,9.1,20.9,11.5c2.3,0.9,4.8-0.2,5.7-2.5s-0.2-4.8-2.5-5.7
	c-6.2-1.9-12-5-17.2-9c6.1-6.9,9.8-15.7,10.4-24.9c4.6,0.9,9.4,1.4,14.1,1.4c4.1-0.1,8.2-0.5,12.2-1.4c0.8,9.3,4.7,18.1,11,25
	c-5.1,4-10.9,7-17.1,8.9c-2.3,0.9-3.4,3.4-2.5,5.7c0.9,2.3,3.4,3.4,5.7,2.5c7.7-2.4,14.8-6.3,20.9-11.5c1.2,0.7,2.4,1.3,3.7,1.8
	c18.9,7.4,32,16.9,41.2,30v0c1.7,2.4,3.2,4.8,4.6,7.4C298.7,478.6,298.8,481,297.8,483.1L297.8,483.1z M300.4,341L300.4,341
	c-0.3,6.1-3.5,11.7-8.5,15.3c-1.4,0.9-2.9,1.6-4.6,2.1c1.6-4.2,2.9-8.4,3.9-12.8c0-0.1,0.1-0.3,0.1-0.4l0,0c0.9-0.7,1.9-1.2,3-1.5
	c2.4-0.4,3.9-2.7,3.5-5.1c-0.4-2.4-2.7-3.9-5.1-3.5c-1.7,0.4-3.3,1-4.7,1.9c-2.2-0.2-4.2,1.3-4.6,3.4c-0.2,1.1-0.4,2.1-0.7,3.2
	c-1.5,6.4-3.7,12.7-6.6,18.6c-7.7,16.6-22.2,29.2-39.8,34.4c-6,1.9-12.2,3-18.4,3.2c-5.8,0-11.5-0.8-17-2.3
	c-17.7-5.5-32.2-18.4-39.7-35.3c-2.9-5.9-5.1-12.1-6.6-18.5l-0.7-3.3v0c-0.5-2.4-2.8-3.9-5.2-3.4c-0.2,0.1-0.4,0.1-0.5,0.2
	c-1.7-0.7-3.5-1.2-5.3-1.6c-2.4-0.4-4.7,1.1-5.1,3.5c-0.4,2.4,1.1,4.7,3.5,5.1c1.6,0.4,3.2,0.9,4.7,1.5c1,4.3,2.3,8.4,3.9,12.5
	c-2.5-0.4-4.9-1.3-7.1-2.7c-4.9-3.1-8.1-8.3-8.7-14L130,342l4.3-1c-0.6-7.9,1.3-10.8,3.4-12.3h0c2,0.6,4,0.9,6.1,1
	c3.6,0,7.2-1,10.4-2.8c7-4,12.8-12.2,17.4-24.4c0.7,0,1.4-0.2,2-0.6c4.8-3,10.4-4.6,16.1-4.6c1.6,0,3-0.9,3.7-2.2
	c5.9,3.4,12.4,5.4,19.1,6c3.4,0.3,6.6,0.4,9.6,0.4v0c8.9,0.3,17.7-1.2,26-4.4c2.6-1.1,5.1-2.5,7.3-4.2c1,2.5,2.1,4.9,3.4,7.2
	c8.1,14.4,23.6,29.7,39.8,30.6C300.4,333.8,301,337.5,300.4,341L300.4,341z M175.2,291.4c0.8-3.1,1.6-6.3,2.4-9.8h0
	c2.1,2.7,4.5,5.2,7.1,7.4C181.4,289.4,178.2,290.2,175.2,291.4L175.2,291.4z M300.3,238.3c-4.5-4.6-8.2-9.8-11.2-15.4
	c-13.7-24.9-39-37.5-75.2-37.5c-0.9,0-1.7,0-2.4,0c-60.2,1.4-90.9,57.7-95.5,115.2c-7-5-11.8-12.5-13.5-21
	c-1.8-10.8,2.5-22.4,12.5-33.6l2.3-2.6c12.4-14.5,25.7-28.2,39.9-41c0.1-0.1,0.3-0.2,0.4-0.3c22.2-19.1,39.7-26,52.2-20.3v0
	c2.2,1,4.8,0,5.8-2.2s0-4.8-2.2-5.8c-15.7-7.2-35.4-0.5-60.1,20.4h0c-3.9-0.8-7.4-2.8-10.2-5.6c-2.8-2.8-4.7-6.4-5.4-10.3
	c-1.3-4.4,1-9.1,5.4-10.6c9.6-3.7,58.1-20.7,72.5,7.4h0c0.1,0.1,0.2,0.3,0.3,0.4c0.2,0.3,0.3,0.5,0.5,0.7c0.2,0.2,0.4,0.4,0.7,0.6
	c0.1,0.1,0.2,0.2,0.4,0.3c0.1,0.1,0.2,0,0.3,0.1c0.3,0.1,0.6,0.2,0.9,0.2c0.3,0.1,0.5,0.1,0.8,0.1c0.3,0,0.5,0,0.8-0.1
	c0.3-0.1,0.6-0.1,0.9-0.3c0.1,0,0.2,0,0.3-0.1v0c0.4-0.3,0.7-0.6,1.1-0.8c0.2-0.2,0.4-0.4,0.5-0.7c0.1-0.1,0.2-0.2,0.3-0.4
	c14.4-28.1,62.9-11.1,72.5-7.4c4.6,1.7,7.1,6.8,5.6,11.5c-0.7,3.8-2.4,7.2-5,10c-2.6,2.8-6,4.7-9.7,5.5
	c-24.9-21.2-44.8-28.1-60.6-20.8c-2.2,1-3.2,3.6-2.2,5.8c1,2.2,3.6,3.2,5.8,2.2c12.5-5.7,30.2,1.2,52.7,20.7h0
	c13.9,12.6,27,26.1,39.2,40.3l2.8,3.1c9.7,11,14.1,22.4,12.5,33c-1.2,7.3-4.9,14.1-10.4,19C324.8,275.8,315.6,254.7,300.3,238.3
	L300.3,238.3z"/>
<path class="st0" d="M217.3,446.3c-1.5,0-2.9,0.9-3.5,2.3c-0.6,1.4-0.3,3,0.8,4.1c1.1,1.1,2.7,1.4,4.1,0.8c1.4-0.6,2.3-1.9,2.3-3.5
	c0-1-0.4-1.9-1.1-2.7C219.2,446.7,218.3,446.3,217.3,446.3L217.3,446.3z"/>
<path class="st0" d="M186.5,308.8c-3.7,0-6.7,3-6.7,6.7v6.8c0,3.7,3,6.7,6.7,6.7s6.7-3,6.7-6.7v-6.8
	C193.3,311.8,190.2,308.8,186.5,308.8z"/>
<path class="st0" d="M248.1,308.8c-3.7,0-6.7,3-6.8,6.7v6.8c0.1,3.7,3.1,6.6,6.7,6.6c3.6,0,6.6-2.9,6.7-6.6v-6.8
	C254.8,311.8,251.8,308.8,248.1,308.8L248.1,308.8z"/>
</svg>
