<?xml version="1.0" encoding="utf-8"?>
<!-- Generator: Adobe Illustrator 24.0.1, SVG Export Plug-In . SVG Version: 6.00 Build 0)  -->
<svg version="1.1" id="레이어_1" xmlns="http://www.w3.org/2000/svg" xmlns:xlink="http://www.w3.org/1999/xlink" x="0px"
	 y="0px" viewBox="0 0 75 81" style="enable-background:new 0 0 75 81;" xml:space="preserve">
<style type="text/css">
	.st0{fill:#9C836A;}
</style>
<g>
	<g>
		<path class="st0" d="M43.2,15.1c-1.4,0.5-2.6,1.3-3.7,2.2c1.8,2.4,2.8,5.3,2.8,8.5c0,7.9-6.4,14.3-14.3,14.3s-14.3-6.4-14.3-14.3
			c0-6.6,4.5-12.1,10.5-13.8c2.3-3.8,5.5-7,9.5-9.3C31.9,2.2,29.9,2,28,2C14.9,2.1,4.3,12.8,4.3,25.9S15,49.7,28.1,49.7
			S51.9,39,51.9,25.9c0-4.1-1-7.9-2.8-11.3C47.1,14.3,45.1,14.4,43.2,15.1L43.2,15.1z"/>
		<path class="st0" d="M47.1,2.1C34,2.1,23.3,12.8,23.3,25.9c0,4.1,1,7.9,2.8,11.3c1.9,0.3,3.9,0.2,5.8-0.5c1.4-0.5,2.6-1.3,3.7-2.2
			c-1.8-2.4-2.8-5.3-2.8-8.5c0-7.9,6.4-14.3,14.3-14.3S61.4,18.1,61.4,26c0,6.6-4.5,12.1-10.5,13.8c-2.3,3.8-5.5,7-9.5,9.3
			c1.8,0.5,3.8,0.7,5.7,0.7c13.1,0,23.8-10.7,23.8-23.8C70.9,12.8,60.2,2.1,47.1,2.1L47.1,2.1z"/>
	</g>
</g>
<g>
	<path class="st0" d="M13.6,71.2H8.6v-2.1h13.1v2.1h-5.1V76h-2.9V71.2z M16.7,62.4h4.3v2.1h-3.7c0.3,0.5,0.9,0.9,1.6,1.3
		c0.7,0.4,1.6,0.6,2.7,0.8l-1.5,2c-1.1-0.2-2-0.5-2.8-0.9c-0.8-0.4-1.5-0.8-2-1.5c-0.6,0.6-1.4,1.1-2.2,1.5
		c-0.8,0.4-1.7,0.7-2.8,0.8l-1.5-1.9c1-0.1,1.9-0.4,2.7-0.7c0.8-0.4,1.4-0.8,1.8-1.3H9.3v-2.1h4.4v-0.7h2.9V62.4z"/>
	<path class="st0" d="M31.7,73.9h5.1V76H23.5v-2.1h5.3V71h2.9V73.9z M36,70.1H25.7c-0.4,0-0.7-0.1-0.9-0.3s-0.3-0.5-0.3-0.9v-6.6H36
		V70.1z M27.4,68.1h5.6v-3.7h-5.6V68.1z"/>
	<path class="st0" d="M48.6,68.5h-2.1v-0.8c-0.3,0.5-0.8,0.9-1.4,1.2c-0.6,0.3-1.4,0.5-2.3,0.5c-1.2,0-2.3-0.3-3.1-1
		c-0.9-0.7-1.3-1.6-1.3-2.8s0.4-2.1,1.3-2.8c0.8-0.7,1.9-1.1,3.1-1.1c0.9,0,1.7,0.2,2.3,0.6c0.6,0.4,1.1,0.9,1.3,1.5v-1.1h2v-1h2.9
		v8.9H50c0.4,0.2,0.7,0.5,1.1,0.9c0.3,0.4,0.5,0.9,0.5,1.5c0,0.9-0.5,1.7-1.4,2.3c-1,0.6-2.4,1-4.2,1c-1.9,0-3.3-0.3-4.2-1
		c-1-0.7-1.5-1.4-1.5-2.3c0-0.9,0.5-1.7,1.4-2.4c1-0.7,2.4-1,4.2-1c0.4,0,0.9,0,1.3,0.1c0.5,0,1,0.1,1.4,0.2V68.5z M41.9,64.2
		c-0.3,0.3-0.5,0.7-0.5,1.3s0.2,1,0.5,1.4c0.3,0.3,0.6,0.5,1,0.5c0.3,0,0.6-0.2,0.9-0.5c0.3-0.3,0.4-0.8,0.4-1.4s-0.1-1-0.4-1.3
		c-0.3-0.3-0.6-0.4-0.9-0.4C42.6,63.8,42.2,63.9,41.9,64.2z M43.9,72c-0.5,0.2-0.8,0.6-0.8,1c0,0.4,0.3,0.7,0.8,0.9
		c0.5,0.2,1.2,0.4,2,0.4s1.4-0.1,1.9-0.4c0.5-0.2,0.8-0.5,0.8-0.9c0-0.4-0.3-0.7-0.8-1c-0.5-0.2-1.2-0.4-1.9-0.4S44.4,71.7,43.9,72z
		 M47,65.6c0,0.3,0,0.6-0.1,0.9h1.6v-1.7H47C47,65.1,47,65.3,47,65.6z"/>
	<path class="st0" d="M66.1,64.4h1.5v2.1h-1.5V71h-1.3c0.4,0.3,0.7,0.6,1,1c0.2,0.4,0.3,0.8,0.3,1.2c0,0.9-0.5,1.6-1.4,2.3
		c-0.9,0.6-2.3,0.9-4,0.9c-1.7,0-3.1-0.3-4-0.9c-0.9-0.6-1.4-1.4-1.4-2.3c0-0.9,0.5-1.7,1.4-2.4c0.9-0.7,2.3-1,4-1
		c0.4,0,0.9,0,1.3,0.1c0.4,0,0.9,0.1,1.3,0.2v-1.7l-0.9,1.1c-0.8-0.3-1.5-0.7-2.1-1.1c-0.6-0.4-1.2-1-1.7-1.6
		c-0.5,0.6-1,1.1-1.7,1.6c-0.6,0.5-1.3,0.8-2,1.1l-1.6-1.6c1.2-0.7,2.2-1.6,2.8-2.5c0.6-0.9,0.9-2.1,1-3.3H60c0.1,1.2,0.4,2.2,1,3.2
		c0.6,0.9,1.3,1.6,2.3,2v-5.6h2.9V64.4z M58.8,72.1c-0.4,0.2-0.6,0.5-0.6,0.9c0,0.4,0.2,0.6,0.6,0.9c0.4,0.2,1.1,0.3,1.9,0.3
		c0.8,0,1.4-0.1,1.9-0.3s0.7-0.5,0.7-0.9c0-0.4-0.2-0.6-0.7-0.9c-0.4-0.2-1.1-0.3-1.9-0.3C59.9,71.8,59.3,71.9,58.8,72.1z"/>
</g>
</svg>
