<?xml version="1.0" encoding="utf-8"?>
<!-- Generator: Adobe Illustrator 24.0.1, SVG Export Plug-In . SVG Version: 6.00 Build 0)  -->
<svg version="1.1" id="레이어_1" xmlns="http://www.w3.org/2000/svg" xmlns:xlink="http://www.w3.org/1999/xlink" x="0px"
	 y="0px" viewBox="0 0 69.4 53.1" style="enable-background:new 0 0 69.4 53.1;" xml:space="preserve">
<style type="text/css">
	.st0{fill:#9C836A;}
</style>
<g>
	<g>
		<path class="st0" d="M40.3,15.1c-1.4,0.5-2.6,1.3-3.7,2.2c1.8,2.4,2.8,5.3,2.8,8.5c0,7.9-6.4,14.3-14.3,14.3s-14.3-6.4-14.3-14.3
			c0-6.6,4.5-12.1,10.5-13.8c2.3-3.8,5.5-7,9.5-9.3C29,2.2,27,2,25.1,2C12,2.1,1.4,12.8,1.4,25.9s10.7,23.8,23.8,23.8S49,39,49,25.9
			c0-4.1-1-7.9-2.8-11.3C44.2,14.3,42.2,14.4,40.3,15.1L40.3,15.1z"/>
		<path class="st0" d="M44.2,2.1c-13.1,0-23.8,10.7-23.8,23.8c0,4.1,1,7.9,2.8,11.3c1.9,0.3,3.9,0.2,5.8-0.5
			c1.4-0.5,2.6-1.3,3.7-2.2c-1.8-2.4-2.8-5.3-2.8-8.5c0-7.9,6.4-14.3,14.3-14.3S58.5,18.1,58.5,26c0,6.6-4.5,12.1-10.5,13.8
			c-2.3,3.8-5.5,7-9.5,9.3c1.8,0.5,3.8,0.7,5.7,0.7C57.3,49.8,68,39.1,68,26C68,12.8,57.3,2.1,44.2,2.1L44.2,2.1z"/>
	</g>
</g>
</svg>
