<?xml version="1.0" encoding="utf-8"?>
<!-- Generator: Adobe Illustrator 24.0.2, SVG Export Plug-In . SVG Version: 6.00 Build 0)  -->
<svg version="1.1" id="레이어_1" xmlns="http://www.w3.org/2000/svg" xmlns:xlink="http://www.w3.org/1999/xlink" x="0px"
	 y="0px" viewBox="0 0 233.1 53.1" style="enable-background:new 0 0 233.1 53.1;" xml:space="preserve">
<style type="text/css">
	.st0{fill:#9C836A;}
</style>
<g>
	<path class="st0" d="M18.4,32h-13v-5.2h33.4V32h-13v12.4h-7.5V32z M26.1,9.6H37v5.2h-9.5c0.8,1.3,2.2,2.4,4.1,3.3
		c1.9,0.9,4.2,1.6,6.9,2l-3.8,5c-2.7-0.5-5.1-1.3-7.2-2.2c-2-0.9-3.7-2.2-5.1-3.7c-1.6,1.4-3.5,2.7-5.5,3.7c-2,1-4.4,1.7-7.2,2.1
		l-3.9-4.9c2.5-0.3,4.8-1,6.8-1.9c2-0.9,3.6-2.1,4.6-3.4H7.4V9.6h11.2V7.7h7.5V9.6z"/>
	<path class="st0" d="M64.4,38.9h12.9v5.2H43.6v-5.2H57v-7.3h7.5V38.9z M75.4,29.3H49.2c-0.9,0-1.7-0.3-2.3-0.9
		c-0.6-0.6-0.9-1.3-0.9-2.3V9.3h29.4V29.3z M53.5,24.1h14.4v-9.5H53.5V24.1z"/>
	<path class="st0" d="M107.4,25.2h-5.2v-2c-0.8,1.3-2,2.4-3.5,3.2c-1.5,0.8-3.4,1.2-5.8,1.2c-3.1,0-5.8-0.9-7.9-2.7
		c-2.2-1.8-3.2-4.1-3.2-7c0-2.9,1.1-5.3,3.2-7.2c2.2-1.9,4.8-2.8,7.9-2.8c2.3,0,4.3,0.5,6,1.5c1.6,1,2.8,2.3,3.4,3.7v-2.7h5.1V7.8
		h7.5v22.6H111c1,0.5,1.9,1.2,2.7,2.2c0.8,1,1.2,2.3,1.2,3.8c0,2.3-1.2,4.3-3.6,5.9c-2.4,1.6-6,2.5-10.8,2.5
		c-4.7,0-8.4-0.8-10.8-2.5c-2.5-1.7-3.7-3.7-3.7-5.9c0-2.4,1.2-4.4,3.6-6.1c2.4-1.7,6-2.5,10.8-2.5c1,0,2.2,0.1,3.4,0.2
		c1.3,0.1,2.5,0.3,3.6,0.6V25.2z M90.5,14.2c-0.8,0.7-1.2,1.9-1.2,3.3c0,1.5,0.4,2.6,1.2,3.5c0.8,0.8,1.6,1.3,2.5,1.3
		c0.8,0,1.6-0.4,2.4-1.3c0.7-0.8,1.1-2,1.1-3.5c0-1.5-0.4-2.6-1.1-3.3c-0.7-0.7-1.5-1.1-2.4-1.1C92.1,13,91.3,13.4,90.5,14.2z
		 M95.5,34c-1.4,0.6-2.1,1.4-2.1,2.4c0,0.9,0.7,1.7,2.1,2.3c1.4,0.6,3,0.9,5,0.9c2,0,3.6-0.3,5-0.9c1.3-0.6,2-1.4,2-2.3
		c0-1-0.7-1.8-2-2.4c-1.3-0.6-3-0.9-5-0.9C98.5,33,96.8,33.4,95.5,34z M103.5,17.7c0,0.7-0.1,1.4-0.3,2.2h4.2v-4.3h-4.1
		C103.4,16.3,103.5,17,103.5,17.7z"/>
	<path class="st0" d="M152.2,14.6h3.7v5.2h-3.7v11.6h-3.3c1,0.7,1.9,1.5,2.4,2.5c0.6,0.9,0.9,1.9,0.9,3c0,2.3-1.2,4.2-3.6,5.7
		c-2.4,1.5-5.8,2.3-10.3,2.3c-4.4,0-7.9-0.8-10.3-2.3c-2.4-1.6-3.6-3.5-3.6-5.8c0-2.3,1.2-4.3,3.6-6c2.4-1.7,5.8-2.6,10.2-2.6
		c1.1,0,2.2,0.1,3.3,0.2c1.1,0.1,2.2,0.3,3.2,0.6v-4.3l-2.2,2.9c-1.9-0.7-3.7-1.7-5.3-2.8c-1.6-1.1-3.1-2.4-4.4-4
		c-1.2,1.5-2.7,2.9-4.3,4c-1.6,1.2-3.3,2.1-5,2.8l-4.1-4.1c3.1-1.8,5.5-4,7-6.4c1.5-2.4,2.4-5.3,2.6-8.5h7.5c0.2,3,1,5.7,2.5,8
		c1.4,2.3,3.4,4,5.8,5.1V7.7h7.5V14.6z M133.6,34.4c-1.1,0.6-1.7,1.3-1.7,2.2c0,0.9,0.6,1.6,1.7,2.2s2.7,0.9,4.7,0.9
		c2.1,0,3.6-0.3,4.7-0.9c1.1-0.6,1.7-1.3,1.7-2.2c0-0.9-0.6-1.6-1.7-2.2c-1.1-0.6-2.7-0.9-4.7-0.9C136.3,33.5,134.7,33.8,133.6,34.4
		z"/>
	<path class="st0" d="M171.2,8.6c-2.2,3.2-3.8,6.2-4.8,8.8c-1,2.6-1.5,5.3-1.5,8c0,3.2,0.5,6.2,1.6,9.1c1,2.9,2.6,5.8,4.7,8.8h-3.4
		c-3-2.9-5.1-5.9-6.2-8.8c-1.1-2.9-1.6-6-1.6-9.1c0-3.1,0.6-6,1.9-8.6c1.2-2.6,3.2-5.3,6-8.2H171.2z"/>
	<path class="st0" d="M195.8,11c2.1,1.9,3.2,4.1,3.2,6.8c0,2.6-1.1,4.8-3.2,6.7c-2.1,1.9-4.7,2.8-7.8,2.8c-3,0-5.6-0.9-7.8-2.8
		c-2.1-1.9-3.2-4.1-3.2-6.7c0-2.6,1.1-4.9,3.2-6.8c2.1-1.9,4.7-2.8,7.8-2.8C191,8.2,193.6,9.1,195.8,11z M209.1,43.9h-24.9
		c-0.9,0-1.7-0.3-2.3-0.9c-0.6-0.6-0.9-1.4-0.9-2.3V28.5h28V43.9z M185.5,14.7c-0.7,0.8-1,1.9-1,3.1c0,1.2,0.3,2.2,1,3.1
		c0.7,0.8,1.5,1.3,2.5,1.3c0.9,0,1.8-0.4,2.5-1.3s1-1.9,1-3.1c0-1.2-0.3-2.3-1-3.1s-1.5-1.2-2.5-1.2C187,13.4,186.2,13.8,185.5,14.7
		z M188.6,38.7h13v-4.9h-13V38.7z M209.1,27.7h-7.5V7.8h7.5V27.7z"/>
	<path class="st0" d="M225.3,16.8c1.2,2.6,1.8,5.5,1.8,8.6c0,3.1-0.5,6.1-1.6,9.1c-1.1,2.9-3.2,5.9-6.2,8.8h-3.4
		c2.1-3,3.7-5.9,4.7-8.8s1.6-5.9,1.6-9.1c0-2.7-0.5-5.4-1.5-8c-1-2.6-2.6-5.5-4.8-8.8h3.4C222,11.5,224,14.2,225.3,16.8z"/>
</g>
</svg>
